Coordinates
version=1
nRows=11
nColumns=36
inDegrees=yes

Units are S.I. units (second, meters, Newtons, ...)
If the header above contains a line with 'inDegrees', this indicates whether rotational values are in degrees (yes) or radians (no).

endheader
time	pelvis_tilt	pelvis_list	pelvis_rotation	pelvis_tx	pelvis_ty	pelvis_tz	hip_flexion_r	hip_adduction_r	hip_rotation_r	knee_angle_r	knee_angle_r_beta	ankle_angle_r	subtalar_angle_r	mtp_angle_r	hip_flexion_l	hip_adduction_l	hip_rotation_l	knee_angle_l	knee_angle_l_beta	ankle_angle_l	subtalar_angle_l	mtp_angle_l	lumbar_extension	lumbar_bending	lumbar_rotation	arm_flex_r	arm_add_r	arm_rot_r	elbow_flex_r	pro_sup_r	arm_flex_l	arm_add_l	arm_rot_l	elbow_flex_l	pro_sup_l
      0.00000000	     -4.77723467	      0.93006680	     -1.96057035	     -0.06335310	      1.00185100	     -0.32120401	     27.23901417	      1.86519525	     -1.09595858	      7.22476412	      0.12609592	     -3.27446282	     -6.84952642	     -5.04080194	    -14.98589214	      3.25618817	     -7.65085793	      7.15341635	      0.12485067	     11.64105355	     14.05962153	     -5.04080194	    -11.02142008	     -7.14568217	     -5.54282290	     -3.02179942	     -8.08322972	     -4.42219653	     37.61965938	    109.16058306	      7.98105751	    -11.46131941	     11.43613372	     48.05576942	    108.18524912
      0.01000000	     -4.52765246	      0.62693239	     -1.79082184	     -0.05129559	      1.00207382	     -0.32126596	     27.35167451	      2.02378102	     -1.35150416	      9.17849886	      0.16019503	     -3.50422668	     -8.00920413	     -5.06506811	    -15.23508369	      2.69111154	     -7.59403196	      8.41978438	      0.14695296	     10.92627105	     14.01903659	     -5.06506811	    -11.22200939	     -6.01751093	     -5.49739411	     -2.79385128	     -8.19464188	     -4.70263316	     37.35415187	    109.13234386	      6.95833085	    -11.27362260	     11.65928533	     46.98675762	    108.17586670
      0.02000000	     -4.56257168	      0.39125328	     -1.68195718	     -0.03934269	      1.00190668	     -0.32105238	     27.77886041	      2.20305215	     -1.15940197	     11.12681517	      0.19419956	     -4.32806839	     -9.85542015	     -5.12567701	    -14.99352415	      2.13693314	     -7.85591191	     10.01250245	      0.17475113	     10.34633914	     14.34844662	     -5.12567701	    -11.03351975	     -5.00705704	     -5.18709174	     -2.71125516	     -8.22531148	     -5.35721148	     36.97641560	    109.09465169	      6.11170874	    -11.07526894	     12.22604616	     45.54720625	    108.32634998
      0.03000000	     -4.17767983	      0.04428476	     -1.52365542	     -0.02712782	      1.00259871	     -0.32098511	     27.65373819	      2.42639142	     -1.46250751	     12.99365907	      0.22678213	     -4.42753212	    -10.82526151	     -5.14573981	    -15.24267045	      1.48488734	     -7.96667718	     11.49045167	      0.20054621	      9.39413101	     14.36963753	     -5.14573981	    -11.38489089	     -3.87278541	     -5.06065516	     -2.52378059	     -8.33243921	     -5.72226350	     36.77996988	    109.06174988	      5.12558514	    -10.87808971	     12.44538934	     44.51893790	    108.34349719
      0.04000000	     -3.93694408	     -0.27481190	     -1.33817793	     -0.01489303	      1.00334805	     -0.32081981	     27.57928339	      2.64848089	     -1.60310649	     14.72173049	      0.25694267	     -4.44363384	    -11.84384768	     -5.16755749	    -15.11930143	      0.79239704	     -8.15892512	     13.30496712	      0.23221548	      8.24737767	     14.44129543	     -5.16755749	    -11.55281209	     -2.78887843	     -4.89451150	     -2.40842032	     -8.40783856	     -6.23767685	     36.55476322	    109.01524638	      4.14632109	    -10.65197490	     12.62249349	     43.32061878	    108.36528020
      0.05000000	     -3.82281451	     -0.64128433	     -1.19758638	     -0.00265404	      1.00412213	     -0.32033321	     27.47480519	      3.01224301	     -1.50631403	     16.15716366	      0.28199570	     -4.84939296	    -13.36713521	     -5.28387223	    -14.60792471	     -0.07793807	     -8.79006188	     15.54870560	      0.27137611	      7.30760606	     15.29305119	     -5.28387223	    -11.55377822	     -1.66493943	     -4.36044097	     -2.61960760	     -8.29133719	     -7.81698834	     36.69372566	    109.02725848	      3.42603912	    -10.41415377	     13.28600325	     41.73430905	    108.81494090
      0.06000000	     -3.48902388	     -0.98270606	     -0.97569881	      0.00961777	      1.00554268	     -0.32010370	     26.96407177	      3.26562699	     -1.84375549	     17.33577957	      0.30256643	     -4.38771111	    -13.94178600	     -5.30607585	    -14.22708667	     -0.87002141	     -8.90046176	     17.86148561	      0.31174173	      5.56968933	     15.00088575	     -5.30607585	    -11.84420968	     -0.56672171	     -4.26870941	     -2.47307821	     -8.38301932	     -8.21147953	     36.58916674	    109.01415177	      2.34391991	    -10.21334984	     13.18814711	     40.64732488	    108.78414183
      0.07000000	     -3.37239849	     -1.32169947	     -0.74265012	      0.02171764	      1.00679864	     -0.31968260	     26.52095049	      3.55742508	     -2.08692676	     18.19862214	      0.31762588	     -3.95691919	    -14.42089491	     -5.34940953	    -13.32702107	     -1.75759000	     -9.10283536	     20.60544038	      0.35963278	      3.81218483	     14.77109294	     -5.34940953	    -11.86975444	      0.49968941	     -4.08414500	     -2.45687989	     -8.36331962	     -9.03545564	     36.57904817	    109.00428743	      1.30423497	     -9.93713362	     12.89469346	     39.42620219	    108.79194825
      0.08000000	     -3.10035142	     -1.61200793	     -0.40167114	      0.03363243	      1.00844067	     -0.31934279	     25.72813250	      3.77048700	     -2.50139029	     18.72440355	      0.32680249	     -3.36956300	    -14.92668060	     -5.36785599	    -12.39645700	     -2.63586088	     -9.06593647	     23.57305568	      0.41142744	      1.86060845	     14.45376145	     -5.36785599	    -12.12647485	      1.49337280	     -4.02656750	     -2.38456561	     -8.38379771	     -9.50756932	     36.64396270	    108.99218442	      0.27077424	     -9.80717914	     12.69588334	     38.40936835	    108.74458869
      0.09000000	     -3.08533465	     -2.00846687	     -0.02619666	      0.04539207	      1.00973197	     -0.31890490	     25.06167278	      4.12752476	     -2.86433780	     18.94564266	      0.33066384	     -2.84715248	    -15.31006286	     -5.39168522	    -10.91967107	     -3.71622245	     -9.06035289	     26.95697723	      0.47048801	     -0.17721427	     13.95750345	     -5.39168522	    -12.02623373	      2.60576360	     -3.95350862	     -2.40071205	     -8.39003601	    -10.20104340	     36.75883662	    108.97648283	     -0.76657270	     -9.62612381	     12.31702831	     37.26402665	    108.68325906
      0.10000000	     -3.01750857	     -2.29864344	      0.42430108	      0.05691846	      1.01117251	     -0.31855505	     24.23204582	      4.36564390	     -3.28962232	     18.93280041	      0.33043970	     -2.25229682	    -15.74080570	     -5.40980954	     -9.30800101	     -4.70038056	     -8.86189855	     30.53408404	      0.53292030	     -2.24162121	     13.44008053	     -5.40980954	    -12.00777439	      3.56774892	     -3.90164225	     -2.43315391	     -8.37584490	    -10.75558417	     36.91485352	    108.96886294	     -1.71944185	     -9.51868163	     11.96596518	     36.23184698	    108.61618371
